<svg xmlns="http://www.w3.org/2000/svg" viewBox="0 0 256 256" width="30" height="30" fill-rule="nonzero" xmlns:v="https://vecta.io/nano"><path d="M230.4 51.2H25.6c-9.429 0-17.067 7.637-17.067 17.067v119.467c0 9.429 7.637 17.067 17.067 17.067h204.8c9.429 0 17.067-7.637 17.067-17.067V68.267c0-9.429-7.637-17.067-17.067-17.067zm-59.733 34.133h17.067V102.4h-17.067zm-34.133 0H153.6V102.4h-17.067zm34.133 34.133v17.067H153.6v-17.067zM102.4 85.333h17.067V102.4H102.4zm34.133 34.133v17.067h-17.067v-17.067zM68.267 85.333h17.067V102.4H68.267zm34.133 34.133v17.067H85.333v-17.067zM34.133 85.333H51.2V102.4H34.133zm0 34.133h34.133v17.067H34.133zm17.067 51.2H34.133V153.6H51.2zm136.533 0H68.267V153.6h119.467zm34.133 0H204.8V153.6h17.067zm0-34.133h-34.133v-17.067h34.133zm0-34.133H204.8V85.333h17.067z" fill="#fff"/></svg>